<?xml version="1.0" standalone="no"?>
<!DOCTYPE svg PUBLIC "-//W3C//DTD SVG 20010904//EN"
 "http://www.w3.org/TR/2001/REC-SVG-20010904/DTD/svg10.dtd">
<svg version="1.0" xmlns="http://www.w3.org/2000/svg"
 width="378.000000pt" height="378.000000pt" viewBox="0 0 378.000000 378.000000"
 preserveAspectRatio="xMidYMid meet">
<metadata>
Created by potrace 1.11, written by Peter Selinger 2001-2013
</metadata>
<g transform="translate(0.000000,378.000000) scale(0.100000,-0.100000)"
fill="#000000" stroke="none">
<path d="M0 1890 l0 -1890 1890 0 1890 0 0 1890 0 1890 -1890 0 -1890 0 0
-1890z m1258 1649 c112 -20 102 63 102 -804 0 -415 3 -755 8 -755 4 1 52 58
108 128 677 852 1111 1390 1132 1404 39 26 155 41 262 35 140 -8 180 -28 180
-88 0 -50 -53 -123 -328 -452 -506 -606 -845 -1012 -859 -1029 -13 -14 48 -99
574 -797 323 -429 605 -806 626 -838 106 -160 64 -206 -190 -205 -149 0 -193
11 -239 54 -17 16 -308 405 -645 863 -338 459 -617 835 -621 835 -5 0 -8 -382
-8 -848 0 -815 -1 -850 -19 -866 -30 -27 -79 -37 -192 -38 -125 -1 -203 15
-224 45 -13 19 -15 228 -15 1664 l0 1642 21 20 c39 37 203 51 327 30z"/>
</g>
</svg>
