<?xml version="1.0" standalone="no"?>
<!DOCTYPE svg PUBLIC "-//W3C//DTD SVG 20010904//EN"
 "http://www.w3.org/TR/2001/REC-SVG-20010904/DTD/svg10.dtd">
<svg version="1.0" xmlns="http://www.w3.org/2000/svg"
 width="384.000000pt" height="384.000000pt" viewBox="0 0 384.000000 384.000000"
 preserveAspectRatio="xMidYMid meet">
<metadata>
Created by potrace 1.11, written by Peter Selinger 2001-2013
</metadata>
<g transform="translate(0.000000,384.000000) scale(0.100000,-0.100000)"
fill="#000000" stroke="none">
<path d="M0 1920 l0 -1920 1920 0 1920 0 0 1920 0 1920 -1920 0 -1920 0 0
-1920z m1348 1597 c17 -10 32 -19 33 -20 0 -1 3 -342 6 -757 2 -415 5 -758 6
-762 1 -4 40 41 87 100 790 997 1124 1409 1163 1432 40 24 49 25 204 25 149 0
164 -2 190 -21 24 -18 28 -29 27 -67 0 -56 -14 -76 -193 -291 -74 -89 -327
-392 -563 -674 -235 -281 -428 -517 -428 -522 0 -10 466 -635 954 -1279 312
-413 328 -441 292 -496 -23 -35 -73 -45 -226 -45 -152 0 -198 9 -240 48 -25
23 -274 358 -975 1312 -240 327 -288 391 -291 387 -5 -5 -12 -602 -13 -1174
l-1 -532 -32 -18 c-27 -15 -58 -18 -178 -18 -153 0 -189 5 -214 31 -14 14 -16
179 -16 1663 0 1574 1 1649 18 1664 30 27 91 36 227 34 100 -2 138 -7 163 -20z"/>
</g>
</svg>
